<?xml version="1.0" standalone="no"?>
<!DOCTYPE svg PUBLIC "-//W3C//DTD SVG 20010904//EN"
 "http://www.w3.org/TR/2001/REC-SVG-20010904/DTD/svg10.dtd">
<svg version="1.0" xmlns="http://www.w3.org/2000/svg"
 width="256.000000pt" height="256.000000pt" viewBox="0 0 256.000000 256.000000"
 preserveAspectRatio="xMidYMid meet">

<g transform="translate(0.000000,256.000000) scale(0.100000,-0.100000)"
fill="#000000" stroke="none">
<path d="M960 2531 c-138 -40 -210 -100 -351 -286 -60 -80 -72 -101 -100 -165
-34 -82 -48 -97 -123 -137 -41 -22 -96 -64 -136 -104 -238 -240 -303 -755
-131 -1041 l38 -62 -78 -39 -79 -39 0 -329 0 -329 1216 0 1215 0 -7 23 c-67
220 -221 383 -431 457 l-75 27 49 18 c135 51 259 123 317 184 17 17 35 31 42
31 19 0 73 49 89 81 8 15 15 39 15 52 0 19 9 28 44 41 54 21 76 52 76 106 0
34 -4 42 -25 50 -16 6 -25 17 -25 30 0 12 -14 55 -31 97 -24 57 -47 91 -98
144 -57 59 -65 72 -58 92 5 16 20 28 45 35 55 17 128 68 152 108 12 19 28 34
36 34 8 0 14 7 14 16 0 12 -5 14 -17 9 -10 -4 -28 -10 -40 -12 -21 -5 -23 -2
-23 39 0 61 -35 126 -88 163 -39 27 -52 30 -117 30 -65 0 -78 -3 -117 -30 -72
-51 -106 -146 -78 -221 l11 -27 -83 6 c-84 5 -133 21 -178 56 -24 19 -25 19
-62 0 -20 -10 -59 -28 -86 -38 l-50 -20 -4 60 c-5 74 -43 133 -107 165 l-45
22 50 8 c71 11 225 9 256 -4 16 -7 30 -22 34 -37 4 -18 10 -23 18 -16 17 14
113 48 186 66 127 31 403 30 518 -1 21 -6 22 -4 22 57 0 51 -5 70 -26 100 -31
45 -124 119 -187 150 -28 14 -47 30 -47 40 0 17 -43 103 -63 124 -6 8 -27 35
-46 62 -78 111 -144 135 -321 120 -89 -8 -103 -13 -217 -70 l-122 -61 -21 26
c-33 43 -130 100 -218 130 -70 24 -98 28 -180 27 -57 -1 -120 -8 -152 -18z
m977 -317 c-3 -3 -12 -4 -19 -1 -8 3 -5 6 6 6 11 1 17 -2 13 -5z m-679 -469
c-23 -33 -32 -58 -36 -100 -3 -36 -9 -55 -18 -55 -7 0 -16 5 -19 10 -3 6 -13
10 -21 10 -25 0 -214 93 -214 105 0 9 30 14 98 18 70 3 115 12 162 30 36 13
68 25 72 26 4 0 -7 -19 -24 -44z m975 24 c15 -24 1 -49 -26 -49 -35 0 -52 23
-37 50 13 24 47 24 63 -1z m137 -29 c11 -11 20 -29 20 -40 0 -28 -35 -60 -65
-60 -30 0 -65 32 -65 60 0 28 35 60 65 60 14 0 34 -9 45 -20z m-965 -25 c0
-27 -3 -30 -30 -30 -21 0 -31 5 -33 18 -6 33 6 49 35 45 24 -3 28 -8 28 -33z
m135 -15 c11 -11 20 -29 20 -40 0 -28 -35 -60 -65 -60 -30 0 -65 32 -65 60 0
28 35 60 65 60 14 0 34 -9 45 -20z m680 -15 c17 -21 5 -45 -24 -45 -29 0 -40
24 -20 45 19 19 28 19 44 0z m-830 -40 c18 -21 5 -47 -22 -43 -26 3 -37 36
-16 49 18 12 24 11 38 -6z"/>
</g>
</svg>
